<?xml version="1.0" encoding="UTF-8" standalone="no"?>
<!-- Created with Inkscape (http://www.inkscape.org/) -->

<svg
   width="512"
   height="512"
   viewBox="0 0 135.46666 135.46667"
   version="1.1"
   id="svg5"
   inkscape:version="1.1.2 (0a00cf5339, 2022-02-04)"
   sodipodi:docname="icon.svg"
   xmlns:inkscape="http://www.inkscape.org/namespaces/inkscape"
   xmlns:sodipodi="http://sodipodi.sourceforge.net/DTD/sodipodi-0.dtd"
   xmlns="http://www.w3.org/2000/svg"
   xmlns:svg="http://www.w3.org/2000/svg">
  <sodipodi:namedview
     id="namedview7"
     pagecolor="#505050"
     bordercolor="#ffffff"
     borderopacity="1"
     inkscape:pageshadow="0"
     inkscape:pageopacity="0"
     inkscape:pagecheckerboard="1"
     inkscape:document-units="mm"
     showgrid="false"
     units="px"
     width="512px"
     inkscape:zoom="0.60756173"
     inkscape:cx="214.79299"
     inkscape:cy="561.25984"
     inkscape:window-width="1920"
     inkscape:window-height="1080"
     inkscape:window-x="0"
     inkscape:window-y="0"
     inkscape:window-maximized="1"
     inkscape:current-layer="layer1" />
  <defs
     id="defs2" />
  <rect
     width="135.46666"
     height="135.46667"
     x="0"
     y="0"
     id="background"
     style="fill:#2c2c2c"
     ry="9.9234848" />
  <g
     inkscape:label="Layer 1"
     inkscape:groupmode="layer"
     id="layer1">
    <g
       aria-label="SQ"
       id="text5270"
       style="font-weight:bold;font-size:90.7449px;line-height:1.25;font-family:Yrsa;-inkscape-font-specification:'Yrsa Bold';fill:#f5f3ef;stroke-width:2.26863">
      <path
         d="m 56.834954,72.315948 q 0,3.720541 -1.905643,7.350337 -1.905643,3.629797 -6.261398,6.079909 -4.265011,2.359368 -11.433858,2.359368 -5.17246,0 -9.709705,-1.179684 -4.4465,-1.179684 -7.713317,-2.722347 -0.18149,-3.629796 0.09075,-7.622572 0.272235,-3.992776 0.816704,-6.896613 h 7.078103 l 1.270428,8.530021 q 0.18149,0.816704 0.453725,1.361174 0.36298,0.544469 0.998194,1.179683 0.998194,0.907449 2.813092,1.724154 1.905643,0.816704 4.174265,0.816704 3.266817,0 5.081715,-1.814898 1.814898,-1.814899 1.814898,-4.80948 0,-2.813092 -1.542663,-4.80948 -1.451919,-1.996388 -3.902031,-3.539051 -2.450112,-1.633409 -5.535439,-3.176072 -3.448307,-1.814898 -6.533633,-3.720541 -2.994582,-1.996388 -4.900225,-4.80948 -1.814898,-2.813092 -1.814898,-7.168847 0,-6.442889 4.62799,-10.798644 4.718735,-4.355755 14.06546,-4.355755 3.992776,0 7.985552,0.725959 3.992775,0.725959 6.987357,1.996388 0.272235,3.266816 0,6.896612 -0.18149,3.539052 -0.725959,6.715123 H 46.2178 l -1.361173,-7.441082 q -0.18149,-0.998194 -0.54447,-1.633408 -0.272234,-0.725959 -0.907449,-1.088939 -0.907449,-0.635214 -2.359367,-0.998194 -1.361174,-0.453724 -2.813092,-0.453724 -2.903837,0 -4.62799,1.724153 -1.633409,1.633408 -1.633409,4.355755 0,2.540858 1.270429,4.265011 1.361174,1.724153 3.811286,3.176071 2.540857,1.361174 5.898419,3.176072 3.811286,1.905643 6.896612,4.26501 3.176072,2.268623 5.081715,5.263205 1.905643,2.994582 1.905643,7.078102 z"
         id="path824" />
      <path
         d="m 78.250584,86.381408 5.989164,-0.453724 q 4.355755,0 7.168847,0.453724 2.813092,0.453725 4.99097,1.361174 2.177878,0.907449 4.537245,2.268622 2.6316,1.451919 4.99097,2.177878 2.35937,0.725959 4.80948,0.725959 1.17968,0 2.08713,-0.181489 0.9982,-0.09074 1.8149,-0.18149 l 1.08894,3.902031 q -1.36117,1.633408 -4.26501,3.176071 -2.90384,1.542666 -6.35214,1.542666 -3.72055,0 -6.352148,-1.361176 -2.540857,-1.361173 -4.62799,-3.448306 Q 92.04381,94.36696 89.956677,92.189082 87.869544,90.101949 85.056452,88.468541 82.334105,86.835133 78.250584,86.381408 Z M 63.277675,62.152519 q 0,-8.620766 2.722347,-14.882164 2.813092,-6.261398 8.167042,-9.61896 5.353949,-3.357561 13.248756,-3.357561 7.804061,0 12.70429,3.266816 4.99097,3.176072 7.35033,8.983746 2.35937,5.807674 2.35937,13.70248 0,8.620766 -2.90384,14.882164 -2.81309,6.261399 -8.257782,9.61896 -5.35395,3.357562 -12.976522,3.357562 -11.615347,0 -17.060041,-7.078103 -5.35395,-7.078102 -5.35395,-18.87494 z m 13.702481,-0.635214 q 0,11.524603 2.268622,16.515572 2.359368,4.99097 7.078103,4.99097 4.80948,0 7.259592,-5.17246 2.540857,-5.263204 2.540857,-17.150786 0,-11.433858 -2.359367,-16.334083 -2.268623,-4.900225 -7.078103,-4.900225 -4.80948,0 -7.259592,5.17246 -2.450112,5.081714 -2.450112,16.878552 z"
         id="path826" />
    </g>
  </g>
</svg>
